<svg width="217" height="34" viewBox="0 0 217 34" fill="none" xmlns="http://www.w3.org/2000/svg">
<path d="M0.027691 21.8844C4.86906 21.8782 9.33643 20.2513 12.9318 17.5092V26.1917H21.4976V17.5075H12.934C18.1678 13.5148 21.5531 7.15882 21.5531 2.20849e-06L12.9318 0C12.9318 7.25185 7.14205 13.1306 0 13.1306L6.53518e-06 21.8844H0.027691Z" fill="black"/>
<path d="M95.0483 12.7599C96.2144 12.7599 97.0376 11.9485 97.0376 10.7895C97.0376 9.65361 96.2144 8.84229 95.0483 8.84229C93.8822 8.84229 93.0591 9.65361 93.0591 10.7895C93.0591 11.9485 93.8822 12.7599 95.0483 12.7599Z" fill="black"/>
<path d="M79.75 9.00464V26.2049H83.1797V19.5288C83.1797 18.022 84.2772 16.9325 85.6034 16.9325C86.9753 16.9557 87.7984 17.9525 87.7984 19.3897V26.2049H91.2282V18.6711C91.2282 15.8662 89.4676 13.8727 86.7695 13.8727C85.3519 13.8727 83.9571 14.5217 83.1797 15.6808V9.00464H79.75Z" fill="black"/>
<path d="M72.0218 22.3567C72.0218 24.8834 73.5309 26.6683 75.8631 26.6683C76.5948 26.6683 77.5094 26.5292 78.2182 26.2974V23.4925C77.8295 23.6084 77.3265 23.678 77.0063 23.678C76.046 23.678 75.4515 23.0057 75.4515 22.0089V16.9787H78.1039V14.3361H75.4515V11.3457H72.5705L72.1818 14.3361H70.3755V16.9787H72.0218V22.3567Z" fill="black"/>
<path fill-rule="evenodd" clip-rule="evenodd" d="M29.9844 20.2705C29.9844 16.4688 32.6368 13.8726 36.4781 13.8726C40.3423 13.8726 42.9946 16.4688 42.9946 20.2705C42.9946 24.049 40.3423 26.6684 36.4781 26.6684C32.6368 26.6684 29.9844 24.049 29.9844 20.2705ZM33.4371 20.2705C33.4371 22.2177 34.6946 23.6085 36.4781 23.6085C38.2844 23.6085 39.542 22.2177 39.542 20.2705C39.542 18.3233 38.2844 16.9324 36.4781 16.9324C34.6946 16.9324 33.4371 18.3233 33.4371 20.2705Z" fill="black"/>
<path d="M44.5122 26.2048H47.9419V19.5287C47.9419 18.0219 49.0395 16.9324 50.3885 16.9324C51.7375 16.9324 52.5607 17.9524 52.5607 19.3896V26.2048H55.9904V18.7869C55.9904 15.9356 54.2069 13.8726 51.5775 13.8726C50.0455 13.8726 48.6736 14.6607 47.8505 15.9356V14.3362H44.5122V26.2048Z" fill="black"/>
<path fill-rule="evenodd" clip-rule="evenodd" d="M57.2952 20.1777C57.2952 24.0026 59.9476 26.6684 63.7203 26.6684C66.5784 26.6684 69.0478 24.9762 69.6194 22.6581L66.5327 22.2177C66.1668 23.2608 65.0922 24.0026 63.8117 24.0026C62.2569 24.0026 61.1365 22.9131 60.8393 21.2441L70.0081 21.2673C70.0539 21.0123 70.0539 20.5255 70.0539 20.2241C70.0539 16.4688 67.493 13.8726 63.7431 13.8726C59.9704 13.8726 57.2952 16.4688 57.2952 20.1777ZM60.8164 19.1578C61.1137 17.5815 62.1655 16.5384 63.6746 16.5384C65.2294 16.5384 66.3726 17.651 66.5784 19.1578H60.8164Z" fill="black"/>
<path d="M99.0889 14.3362H102.427V15.9356C103.25 14.6607 104.622 13.8726 106.154 13.8726C108.784 13.8726 110.567 15.9356 110.567 18.7869V26.2048H107.137V19.3896C107.137 17.9524 106.314 16.9324 104.965 16.9324C103.616 16.9324 102.519 18.0219 102.519 19.5287V26.2048H99.0889V14.3362Z" fill="black"/>
<path fill-rule="evenodd" clip-rule="evenodd" d="M118.32 29.2416C116.925 29.2416 115.69 28.268 115.393 26.9235L112.329 27.2712C112.672 30.0065 115.256 32.0001 118.457 32.0001C122.161 32.0001 124.722 29.7516 124.722 26.0658V14.3363H121.292V15.7503C120.401 14.5913 119.074 13.8958 117.428 13.8958C114.204 13.8958 111.872 16.5385 111.872 20.2706C111.872 23.8636 114.204 26.3671 117.428 26.3671C119.052 26.3671 120.378 25.6949 121.292 24.559V25.9731C121.292 28.0362 120.058 29.2416 118.32 29.2416ZM118.366 23.5159C116.582 23.5159 115.302 22.1482 115.302 20.2706C115.302 18.3466 116.582 16.9325 118.366 16.9325C120.149 16.9325 121.43 18.3466 121.43 20.2706C121.43 22.1482 120.149 23.5159 118.366 23.5159Z" fill="black"/>
<path d="M128.242 26.5758C129.408 26.5758 130.231 25.7644 130.231 24.6054C130.231 23.4695 129.408 22.6582 128.242 22.6582C127.099 22.6582 126.253 23.4695 126.253 24.6054C126.253 25.7644 127.099 26.5758 128.242 26.5758Z" fill="black"/>
<path fill-rule="evenodd" clip-rule="evenodd" d="M131.233 20.2706C131.233 24.0259 133.542 26.6685 136.789 26.6685C138.436 26.6685 139.785 25.9499 140.699 24.7677V26.2049H144.083V9.00464H140.653V15.7735C139.739 14.5681 138.39 13.8727 136.789 13.8727C133.542 13.8727 131.233 16.5153 131.233 20.2706ZM137.727 17.0021C139.51 17.0021 140.791 18.3929 140.791 20.2706C140.791 22.1482 139.51 23.5391 137.727 23.5391C135.966 23.5391 134.663 22.1714 134.663 20.2706C134.663 18.3929 135.943 17.0021 137.727 17.0021Z" fill="black"/>
<path d="M93.3335 26.2048V14.3362H96.7632V26.2048H93.3335Z" fill="black"/>
<path fill-rule="evenodd" clip-rule="evenodd" d="M145.614 20.1777C145.614 24.0026 148.266 26.6684 152.039 26.6684C154.897 26.6684 157.366 24.9762 157.938 22.6581L154.851 22.2177C154.485 23.2608 153.411 24.0026 152.13 24.0026C150.576 24.0026 149.455 22.9131 149.158 21.2441L158.327 21.2673C158.372 21.0123 158.372 20.5255 158.372 20.2241C158.372 16.4688 155.812 13.8726 152.062 13.8726C148.289 13.8726 145.614 16.4688 145.614 20.1777ZM149.135 19.1578C149.432 17.5815 150.484 16.5384 151.993 16.5384C153.548 16.5384 154.691 17.651 154.897 19.1578H149.135Z" fill="black"/>
<path d="M170.436 22.4495C170.436 19.6678 167.441 19.181 165.063 18.8564C163.737 18.6478 162.708 18.416 162.708 17.6279C162.731 16.8397 163.577 16.2834 164.628 16.2834C166 16.2834 167.029 16.9556 167.029 17.9292H170.047C170.047 15.5416 167.784 13.8262 164.651 13.8262C161.793 13.8262 159.621 15.4952 159.621 17.8133C159.621 20.7109 161.793 21.1282 164.4 21.4527C165.817 21.5918 167.144 21.87 167.144 22.8667C167.144 23.6549 166.229 24.2576 164.971 24.2576C163.485 24.2576 162.411 23.4231 162.411 22.2408H159.507C159.484 24.8371 161.77 26.7148 164.926 26.7148C168.195 26.7148 170.436 24.9298 170.436 22.4495Z" fill="black"/>
<path d="M172.228 26.2048H175.658V14.3362H172.228V26.2048Z" fill="black"/>
<path d="M175.932 10.7895C175.932 11.9485 175.109 12.7599 173.943 12.7599C172.777 12.7599 171.954 11.9485 171.954 10.7895C171.954 9.65361 172.777 8.84229 173.943 8.84229C175.109 8.84229 175.932 9.65361 175.932 10.7895Z" fill="black"/>
<path fill-rule="evenodd" clip-rule="evenodd" d="M180.979 26.9235C181.276 28.268 182.511 29.2416 183.906 29.2416C185.643 29.2416 186.878 28.0362 186.878 25.9731V24.559C185.964 25.6949 184.637 26.3671 183.014 26.3671C179.79 26.3671 177.458 23.8636 177.458 20.2706C177.458 16.5385 179.79 13.8958 183.014 13.8958C184.66 13.8958 185.986 14.5913 186.878 15.7503V14.3363H190.308V26.0658C190.308 29.7516 187.747 32.0001 184.043 32.0001C180.842 32.0001 178.258 30.0065 177.915 27.2712L180.979 26.9235ZM180.888 20.2706C180.888 22.1482 182.168 23.5159 183.951 23.5159C185.735 23.5159 187.015 22.1482 187.015 20.2706C187.015 18.3466 185.735 16.9325 183.951 16.9325C182.168 16.9325 180.888 18.3466 180.888 20.2706Z" fill="black"/>
<path d="M195.794 26.2048H192.365V14.3362H195.703V15.9356C196.526 14.6607 197.898 13.8726 199.43 13.8726C202.059 13.8726 203.843 15.9356 203.843 18.7869V26.2048H200.413V19.3896C200.413 17.9524 199.59 16.9324 198.241 16.9324C196.892 16.9324 195.794 18.0219 195.794 19.5287V26.2048Z" fill="black"/>
</svg>
