<svg width="240" height="240" viewBox="0 0 240 240" fill="none" xmlns="http://www.w3.org/2000/svg"><defs>
    <filter id="sp1-shadow" x="-30%" y="-30%" width="160%" height="180%">
      <feDropShadow dx="0" dy="4.800000000000001" stdDeviation="8" flood-color="#131A25" flood-opacity="0.07"></feDropShadow>
    </filter>
    <filter id="sp1-shadow-glyph" x="-30%" y="-30%" width="160%" height="180%">
      <feDropShadow dx="0" dy="2" stdDeviation="3" flood-color="#131A25" flood-opacity="0.06"></feDropShadow>
    </filter>
  </defs><radialGradient id="sp1-gf" cx="50%" cy="50%" r="50%">
      <stop offset="0%" stop-color="#FFF"></stop><stop offset="62%" stop-color="#FFF"></stop><stop offset="100%" stop-color="#000"></stop>
    </radialGradient>
    <mask id="sp1-gm"><rect x="21.60000000000001" y="21.60000000000001" width="196.79999999999998" height="196.79999999999998" fill="url(#sp1-gf)"></rect></mask>
    <g mask="url(#sp1-gm)"><path d="M21.60000000000001 21.60000000000001V218.39999999999998" stroke="#E7E8E9" stroke-width="1"></path><path d="M21.60000000000001 21.60000000000001H218.39999999999998" stroke="#E7E8E9" stroke-width="1"></path><path d="M54.400000000000006 21.60000000000001V218.39999999999998" stroke="#E7E8E9" stroke-width="1"></path><path d="M21.60000000000001 54.400000000000006H218.39999999999998" stroke="#E7E8E9" stroke-width="1"></path><path d="M87.2 21.60000000000001V218.39999999999998" stroke="#E7E8E9" stroke-width="1"></path><path d="M21.60000000000001 87.2H218.39999999999998" stroke="#E7E8E9" stroke-width="1"></path><path d="M120 21.60000000000001V218.39999999999998" stroke="#E7E8E9" stroke-width="1"></path><path d="M21.60000000000001 120H218.39999999999998" stroke="#E7E8E9" stroke-width="1"></path><path d="M152.8 21.60000000000001V218.39999999999998" stroke="#E7E8E9" stroke-width="1"></path><path d="M21.60000000000001 152.8H218.39999999999998" stroke="#E7E8E9" stroke-width="1"></path><path d="M185.60000000000002 21.60000000000001V218.39999999999998" stroke="#E7E8E9" stroke-width="1"></path><path d="M21.60000000000001 185.60000000000002H218.39999999999998" stroke="#E7E8E9" stroke-width="1"></path><path d="M218.39999999999998 21.60000000000001V218.39999999999998" stroke="#E7E8E9" stroke-width="1"></path><path d="M21.60000000000001 218.39999999999998H218.39999999999998" stroke="#E7E8E9" stroke-width="1"></path></g><g transform="rotate(6 131.61599999999999 111.20832)" filter="url(#sp1-shadow)">
    <rect x="78.816" y="44.68032000000001" width="105.6" height="133.05599999999998" rx="12" fill="#FAFAFB"></rect></g><g transform="rotate(-2 120 115.2)" filter="url(#sp1-shadow)">
    <rect x="67.2" y="48.67200000000001" width="105.6" height="133.05599999999998" rx="12" fill="#FFFFFF"></rect><rect x="80.928" y="69.96096000000001" width="65.472" height="6" rx="3" fill="#ECEDED"></rect><rect x="80.928" y="88.5888" width="78.14399999999999" height="6" rx="3" fill="#ECEDED"></rect><rect x="80.928" y="107.21664000000001" width="52.8" height="6" rx="3" fill="#ECEDED"></rect><rect x="80.928" y="125.84447999999999" width="71.808" height="6" rx="3" fill="#ECEDED"></rect><rect x="80.928" y="144.47232" width="42.24" height="6" rx="3" fill="#ECEDED"></rect></g><g transform="rotate(0 168.576 157.77792)" filter="url(#sp1-shadow)" fill="none" stroke="none" stroke-width="1px" stop-color="rgb(0, 0, 0)" stop-opacity="1" flood-color="rgb(0, 0, 0)" flood-opacity="1" opacity="1" fill-opacity="1" stroke-opacity="1">
    <circle cx="168.576" cy="157.77792" r="22" fill="#D2E3F9" stroke="#A5C7F2" stroke-width="1"></circle><path d="M158.951 158.46542L165.826 165.34042L178.8885 150.90292" stroke="#104EB8" stroke-width="4.675" stroke-linecap="round" stroke-linejoin="round" fill="none"></path></g></svg>